<?xml version="1.0" standalone="no"?>
<!DOCTYPE svg PUBLIC "-//W3C//DTD SVG 20010904//EN"
 "http://www.w3.org/TR/2001/REC-SVG-20010904/DTD/svg10.dtd">
<svg version="1.0" xmlns="http://www.w3.org/2000/svg"
 width="32.000000pt" height="32.000000pt" viewBox="0 0 32.000000 32.000000"
 preserveAspectRatio="xMidYMid meet">

<g transform="translate(0.000000,32.000000) scale(0.100000,-0.100000)"
fill="#000000" stroke="none">
<path d="M72 297 l-72 -20 0 -98 0 -99 80 -40 80 -40 80 40 80 40 0 99 0 98
-82 22 c-46 12 -85 21 -88 20 -3 -1 -38 -11 -78 -22z m146 -8 c26 -7 51 -15
55 -19 4 -4 -17 -16 -47 -28 l-55 -21 -61 21 c-34 11 -58 23 -55 27 7 6 81 28
103 30 7 1 34 -4 60 -10z m-120 -60 l62 -21 0 -94 0 -94 -70 35 -70 35 0 80
c0 44 4 80 8 80 4 0 36 -9 70 -21z"/>
</g>
</svg>
