<?xml version="1.0" standalone="no"?>
<!DOCTYPE svg PUBLIC "-//W3C//DTD SVG 20010904//EN"
 "http://www.w3.org/TR/2001/REC-SVG-20010904/DTD/svg10.dtd">
<svg version="1.0" xmlns="http://www.w3.org/2000/svg"
 width="480.000000pt" height="480.000000pt" viewBox="0 0 480.000000 480.000000"
 preserveAspectRatio="xMidYMid meet">

<g transform="translate(0.000000,480.000000) scale(0.100000,-0.100000)"
fill="#000000" stroke="none">
<path d="M0 2400 l0 -2400 2400 0 2400 0 0 2400 0 2400 -2400 0 -2400 0 0
-2400z m2747 575 c42 -25 65 -47 83 -80 13 -25 28 -45 33 -45 4 0 20 11 35 25
41 39 85 55 145 55 100 0 228 -60 235 -110 2 -13 11 -35 20 -48 15 -24 15 -25
-19 -53 -18 -16 -42 -36 -52 -46 -53 -54 -65 -66 -100 -98 -43 -40 -55 -42
-104 -19 -20 10 -38 13 -42 8 -5 -5 -18 -36 -29 -69 -29 -85 -50 -133 -62
-140 -25 -15 -7 -43 55 -84 62 -41 83 -69 70 -91 -4 -6 3 -29 14 -51 12 -22
21 -44 21 -48 0 -5 20 -42 45 -83 68 -111 70 -119 43 -140 -31 -23 -39 -22
-68 8 -23 25 -29 26 -90 21 -53 -4 -71 -2 -97 14 -18 11 -35 29 -38 39 -4 11
-13 20 -20 20 -18 0 -65 -21 -65 -30 0 -3 12 -30 26 -60 25 -52 25 -56 13
-114 -7 -34 -37 -107 -66 -163 -45 -87 -52 -109 -48 -140 3 -21 2 -65 -2 -98
-7 -55 -11 -61 -38 -70 -58 -19 -60 -25 -24 -57 41 -35 79 -52 139 -62 54 -9
70 -21 70 -55 0 -39 -33 -54 -125 -59 -63 -3 -93 1 -139 17 -54 19 -61 20 -77
5 -11 -10 -31 -14 -60 -12 l-44 3 0 111 c0 110 0 111 -32 148 -25 28 -33 46
-33 76 0 21 4 42 10 45 22 14 50 100 50 154 0 38 6 66 20 89 28 46 26 56 -24
80 -24 12 -78 56 -121 97 -81 79 -104 88 -141 57 -38 -31 -183 -218 -189 -245
-8 -31 -13 -35 -87 -76 -51 -28 -66 -31 -138 -31 -50 0 -92 5 -108 14 -52 26
-181 78 -237 93 -11 3 -26 11 -33 16 -8 6 -43 10 -78 9 -36 -2 -74 3 -87 9
-12 7 -35 15 -52 19 -22 4 -35 16 -48 43 -10 22 -29 42 -45 48 -39 16 -144 5
-195 -20 -24 -11 -49 -21 -56 -21 -19 0 -71 39 -71 53 0 24 63 88 106 107 29
14 44 27 44 39 0 27 63 79 105 87 39 7 70 -8 119 -60 l28 -31 109 4 c103 3
109 2 142 -23 19 -14 47 -26 63 -26 16 -1 56 -7 89 -15 101 -25 109 -22 156
43 23 31 55 71 71 88 15 17 33 45 38 63 8 30 6 36 -30 75 -22 24 -40 52 -40
62 0 37 95 153 126 154 27 0 88 95 109 170 10 35 22 47 82 86 56 36 62 50 37
92 -14 25 -14 31 5 75 11 26 26 47 33 47 6 0 23 11 37 24 34 31 137 71 236 91
44 9 82 19 84 21 2 2 60 4 127 4 122 0 123 0 181 -35z m443 -1095 c0 -5 -4
-10 -10 -10 -5 0 -10 5 -10 10 0 6 5 10 10 10 6 0 10 -4 10 -10z"/>
<path d="M2480 2188 c1 -18 17 -37 82 -92 32 -26 67 -63 79 -82 23 -38 59 -45
93 -19 18 14 16 18 -53 82 -40 38 -91 80 -113 96 -43 28 -88 36 -88 15z"/>
</g>
</svg>
